<?xml version="1.0" encoding="iso-8859-1"?>
<!-- Generator: Adobe Illustrator 19.0.1, SVG Export Plug-In . SVG Version: 6.00 Build 0)  -->
<svg version="1.1" id="sun" xmlns="http://www.w3.org/2000/svg" xmlns:xlink="http://www.w3.org/1999/xlink" x="0px" y="0px"
	 viewBox="0 0 128 128" style="enable-background:new 0 0 128 128;" xml:space="preserve">
<g id="row3" style="display:none;">
	<path id="icon:4_2_" style="display:inline;fill:#414141;" d="M75.551,95.837c-0.566,0-1.113-0.243-1.505-0.697l-6.144-7.129
		c-1.105-1.283-2.712-2.041-4.406-2.08c-1.691-0.04-3.335,0.645-4.499,1.876l-6.464,6.837c-0.59,0.624-1.479,0.801-2.262,0.456
		c-0.784-0.346-1.25-1.122-1.187-1.977l0.696-9.385c0.125-1.69-0.475-3.362-1.646-4.588c-1.17-1.227-2.816-1.92-4.506-1.854
		l-9.406,0.264c-0.841,0-1.61-0.478-1.921-1.277c-0.31-0.799-0.091-1.678,0.56-2.237l7.126-6.144
		c1.284-1.106,2.043-2.712,2.082-4.406s-0.645-3.334-1.876-4.498l-6.838-6.465c-0.623-0.589-0.802-1.476-0.456-2.26
		c0.346-0.785,1.126-1.256,1.978-1.188h0.001l9.384,0.696c1.694,0.125,3.362-0.475,4.587-1.645c1.226-1.171,1.901-2.813,1.854-4.508
		l-0.264-9.405c-0.023-0.857,0.478-1.611,1.276-1.922c0.802-0.311,1.678-0.091,2.238,0.559l6.144,7.129
		c1.105,1.283,2.712,2.041,4.406,2.08c1.691,0.042,3.335-0.644,4.499-1.876l6.464-6.837c0.59-0.624,1.479-0.802,2.262-0.456
		c0.784,0.346,1.25,1.122,1.187,1.977l-0.696,9.386c-0.125,1.689,0.475,3.362,1.645,4.587c1.171,1.226,2.814,1.913,4.507,1.854
		l9.406-0.264c0.876,0.02,1.61,0.479,1.921,1.277c0.31,0.799,0.091,1.678-0.56,2.237l-7.126,6.144
		c-1.284,1.106-2.043,2.712-2.082,4.406s0.645,3.334,1.876,4.498l6.838,6.465c0.624,0.589,0.802,1.477,0.455,2.262
		c-0.347,0.784-1.116,1.244-1.979,1.186l-9.383-0.695c-1.686-0.124-3.361,0.474-4.587,1.644c-1.226,1.171-1.901,2.813-1.854,4.508
		l0.264,9.406c0.023,0.857-0.478,1.611-1.276,1.921C76.043,95.792,75.795,95.837,75.551,95.837z M63.358,83.928
		c0.062,0,0.123,0.001,0.184,0.002c2.259,0.053,4.4,1.063,5.876,2.774l6.143,7.129l-0.264-9.406c-0.062-2.26,0.838-4.45,2.473-6.011
		s3.86-2.357,6.116-2.191l9.384,0.695l-6.837-6.465c-1.643-1.552-2.555-3.738-2.503-5.997c0.053-2.259,1.064-4.4,2.776-5.876
		l7.126-6.144l-9.405,0.265c-2.294,0.058-4.449-0.838-6.01-2.472s-2.359-3.863-2.192-6.117l0.696-9.385l-6.465,6.838
		c-1.553,1.643-3.784,2.537-5.998,2.502c-2.259-0.053-4.4-1.063-5.876-2.774l-6.143-7.129l0.264,9.406
		c0.062,2.259-0.838,4.45-2.473,6.011c-1.634,1.56-3.848,2.362-6.116,2.192L34.73,51.08c-0.009,0-0.013-0.001-0.012,0l6.849,6.465
		c1.643,1.552,2.555,3.738,2.503,5.997c-0.053,2.259-1.064,4.4-2.776,5.876l-7.126,6.144l9.405-0.265
		c2.275-0.065,4.448,0.838,6.01,2.472c1.561,1.635,2.359,3.864,2.192,6.118l-0.696,9.384l6.465-6.838
		C59.055,84.835,61.165,83.928,63.358,83.928z M64,46.235c-9.81,0-17.77,7.95-17.77,17.77c0,9.81,7.96,17.76,17.77,17.76
		s17.77-7.95,17.77-17.76C81.77,54.185,73.81,46.235,64,46.235z M64,50.495c-7.44,0-13.5,6.06-13.5,13.51h-1
		c0-8,6.5-14.51,14.5-14.51V50.495z"/>
	<path id="icon:3_1_" style="display:inline;fill:#414141;" d="M64.03,94H64c-3.964,0-7.815-0.761-11.447-2.263l0.764-1.848
		C56.705,91.29,60.298,92,64,92L64.03,94z M75.504,91.715l-0.768-1.848c3.402-1.413,6.455-3.458,9.072-6.078l1.414,1.414
		C82.42,88.01,79.15,90.2,75.504,91.715z M42.818,85.245c-2.809-2.801-5.003-6.068-6.521-9.713l1.846-0.77
		c1.417,3.401,3.466,6.451,6.088,9.066L42.818,85.245z M91.725,75.477l-1.848-0.766C91.286,71.315,92,67.712,92,64l-0.001-0.12h2
		L94,63.976C94,67.976,93.234,71.837,91.725,75.477z M34.389,64.049L34,64.041c-0.001-3.993,0.756-7.835,2.249-11.46l1.85,0.762
		C36.706,56.725,36,60.311,36,64L34.389,64.049z M89.834,53.183c-1.424-3.397-3.479-6.443-6.106-9.053l1.408-1.42
		c2.816,2.796,5.018,6.059,6.542,9.699L89.834,53.183z M44.15,44.251l-1.418-1.41c2.797-2.812,6.062-5.009,9.706-6.532l0.771,1.846
		C49.809,39.575,46.76,41.627,44.15,44.251z M74.629,38.088C71.256,36.702,67.68,36,64,36l-0.091-2H64
		c3.942,0,7.774,0.753,11.39,2.238L74.629,38.088z M64,42.5c-11.874,0-21.5,9.626-21.5,21.5S52.125,85.5,64,85.5
		S85.5,75.874,85.5,64S75.874,42.5,64,42.5z"/>
	<path id="icon:2_1_" style="display:inline;fill:#414141;" d="M64,45.364c-10.34,0-18.72,8.38-18.72,18.72
		c0,10.34,8.38,18.72,18.72,18.72s18.72-8.38,18.72-18.72C82.72,53.744,74.34,45.364,64,45.364z M64,49.084c-8.27,0-15,6.73-15,15
		h-1c0-8.82,7.18-16,16-16V49.084z M68.01,41.191H59.99L64,32L68.01,41.191z M64,96l4.01-9.191H59.99L64,96z M86.809,68.01V59.99
		L96,64L86.809,68.01z M32,64l9.191,4.01V59.99L32,64z M82.964,50.707l-5.672-5.672l9.335-3.663L82.964,50.707z M41.373,86.627
		l9.335-3.663l-5.672-5.672L41.373,86.627z M77.293,82.964l5.672-5.672l3.663,9.335L77.293,82.964z M41.373,41.373l3.663,9.335
		l5.672-5.672L41.373,41.373z"/>
	<path id="icon:1_1_" style="display:inline;fill:#414141;" d="M44.347,64.065c0-10.854,8.799-19.653,19.653-19.653
		s19.653,8.799,19.653,19.653S74.854,83.717,64,83.717S44.347,74.918,44.347,64.065z M65,85.786h-2V96h2V85.786z M56.587,84.511
		l-1.848-0.766l-3.909,9.437l1.848,0.766L56.587,84.511z M77.17,93.182L73.657,84.7l-1.848,0.766l3.513,8.481L77.17,93.182z
		 M87.334,85.92l-6.491-6.49l-1.414,1.414l6.491,6.49L87.334,85.92z M49.302,80.112l-1.414-1.414l-7.223,7.222l1.414,1.414
		L49.302,80.112z M93.947,75.322l-8.481-3.513L84.7,73.657l8.481,3.513L93.947,75.322z M44.255,73.261l-0.766-1.848l-9.437,3.909
		l0.766,1.848L44.255,73.261z M96,63h-9.18v2H96V63z M42.214,63H32v2h10.214V63z M44.255,54.739l-9.437-3.909l-0.766,1.848
		l9.437,3.909L44.255,54.739z M93.947,52.678l-0.766-1.848L84.7,54.343l0.766,1.848L93.947,52.678z M49.302,47.888l-7.223-7.222
		l-1.414,1.414l7.223,7.222L49.302,47.888z M87.334,42.08l-1.414-1.414l-6.491,6.49l1.414,1.414L87.334,42.08z M56.587,43.489
		l-3.909-9.437l-1.848,0.766l3.909,9.437L56.587,43.489z M77.17,34.818l-1.848-0.766l-3.513,8.481l1.848,0.766L77.17,34.818z M65,32
		h-2v9.18h2V32z"/>
</g>
<g id="row2" style="display:none;">
	<path id="icon:4" style="display:inline;fill:#414141;" d="M64,99.224l-3.385-13.891l-7.507,12.192l1.089-14.278L43.284,92.5
		l5.442-13.228l-13.228,5.443l9.254-10.913l-14.278,1.088l12.192-7.506L28.776,64l13.891-3.385l-12.192-7.507l14.279,1.089
		L35.5,43.285l13.228,5.443L43.285,35.5l10.912,9.253l-1.089-14.279l7.507,12.193L64,28.776l3.385,13.891l7.507-12.192
		l-1.089,14.278L84.716,35.5l-5.443,13.228l13.229-5.443l-9.254,10.913l14.278-1.088l-12.192,7.506L99.224,64l-13.891,3.385
		l12.192,7.507l-14.279-1.089L92.5,84.716l-13.228-5.443l5.442,13.228l-10.912-9.253l1.089,14.28l-7.507-12.194L64,99.224z
		 M61.424,80.205L64,90.776l2.576-10.572l5.694,9.249l-0.827-10.828l8.293,7.031l-4.14-10.058l10.06,4.139l-7.031-8.292
		l10.828,0.826l-9.249-5.695L90.776,64l-10.572-2.576l9.249-5.694l-10.827,0.826l7.031-8.292l-10.059,4.139l4.139-10.059
		l-8.292,7.031l0.825-10.828l-5.694,9.249L64,37.225l-2.576,10.572l-5.694-9.249l0.827,10.828l-8.293-7.031l4.14,10.059
		l-10.06-4.139l7.031,8.292l-10.828-0.826l9.249,5.695L37.224,64l10.572,2.576l-9.249,5.694l10.827-0.826l-7.031,8.292l10.06-4.139
		l-4.14,10.059l8.292-7.03l-0.825,10.828L61.424,80.205z M64,79.566c8.597,0,15.566-6.969,15.566-15.566S72.597,48.434,64,48.434
		S48.434,55.404,48.434,64S55.403,79.566,64,79.566z"/>
	<path id="icon:3" style="display:inline;fill:#414141;" d="M97.59,64l-9.62-7.79l3.2-11.96l-12.36-0.64l-4.43-11.57L64,38.81
		l-10.38-6.76l-4.43,11.56l-12.36,0.64l3.2,11.96L30.41,64l9.62,7.79l-3.2,11.96l12.36,0.64l4.43,11.57L64,89.19l10.38,6.77
		l4.43-11.57l12.36-0.64l-3.2-11.96L97.59,64z M88.6,81.88l-11.2,0.58l-4,10.47L64,86.81l-9.4,6.12l-4-10.48l-11.2-0.57l2.9-10.83
		L33.59,64l8.71-7.05l-2.9-10.83l11.2-0.58l4-10.47l9.4,6.12l9.4-6.12l4,10.48l11.2,0.57l-2.9,10.83L94.41,64l-8.71,7.05L88.6,81.88
		z M64,43.5c-11.32,0-20.5,9.18-20.5,20.5S52.68,84.5,64,84.5S84.5,75.32,84.5,64S75.32,43.5,64,43.5z M64,47.5
		c-9.1,0-16.5,7.4-16.5,16.5h-1c0-9.65,7.85-17.5,17.5-17.5V47.5z"/>
	<path id="icon:2" style="display:inline;fill:#414141;" d="M47.594,63.645c0-9.061,7.345-16.406,16.406-16.406
		s16.406,7.345,16.406,16.406S73.061,80.052,64,80.052S47.594,72.706,47.594,63.645z M65,83.759h-2V99h2V83.759z M55.572,81.904
		l-1.764-0.942l-7.182,13.447l1.764,0.941L55.572,81.904z M81.962,94.065l-7.441-13.304l-1.745,0.977l7.441,13.304L81.962,94.065z
		 M59.689,83.529l-1.933-0.514l-1.958,7.365l1.933,0.514L59.689,83.529z M72.169,90.279l-2.048-7.34l-1.927,0.537l2.048,7.34
		L72.169,90.279z M83.644,83.15l-5.299-5.481l-1.438,1.391l5.299,5.481L83.644,83.15z M50.588,78.927l-1.424-1.404L43.81,82.95
		l1.424,1.404L50.588,78.927z M94.426,81.378l-13.022-7.939l-1.041,1.708l13.022,7.939L94.426,81.378z M47.293,74.626l-0.986-1.739
		l-13.266,7.525l0.987,1.739L47.293,74.626z M90.422,71.112l-7.299-2.214l-0.58,1.914l7.299,2.214L90.422,71.112z M44.741,69.709
		l-0.468-1.944l-7.416,1.785l0.468,1.944L44.741,69.709z M99.044,64.563l-15.241-0.681l-0.089,1.998l15.241,0.681L99.044,64.563z
		 M44.285,62.119l-15.241-0.681l-0.089,1.998l15.241,0.681L44.285,62.119z M90.788,58.628l-0.468-1.944l-7.416,1.785l0.468,1.944
		L90.788,58.628z M45.102,57.365l-7.299-2.214l-0.58,1.914l7.299,2.214L45.102,57.365z M94.959,47.588l-0.987-1.739l-13.266,7.525
		l0.986,1.739L94.959,47.588z M47.637,52.853l-13.022-7.939l-1.041,1.708l13.022,7.939L47.637,52.853z M83.836,45.228l-1.424-1.404
		l-5.354,5.427l1.424,1.404L83.836,45.228z M50.738,49.118l-5.3-5.481l-1.438,1.391l5.3,5.481L50.738,49.118z M55.225,46.262
		l-7.441-13.304l-1.745,0.977l7.441,13.304L55.225,46.262z M81.374,33.592l-1.764-0.942l-7.182,13.446l1.764,0.942L81.374,33.592z
		 M59.451,44.701l-2.048-7.34l-1.927,0.537l2.048,7.34L59.451,44.701z M71.846,37.797l-1.933-0.514l-1.958,7.365l1.933,0.514
		L71.846,37.797z M65,29h-2v15.241h2V29z"/>
	<path id="icon:1" style="display:inline;fill:#414141;" d="M94.53,61.53c-3.99-3.23-5.7-8.52-4.37-13.48l1.01-3.8l-3.91-0.2
		c-5.14-0.26-9.64-3.54-11.48-8.34l-1.4-3.67l-3.29,2.15c-4.3,2.8-9.88,2.8-14.18,0l-3.29-2.14l-1.4,3.66
		c-1.84,4.8-6.34,8.08-11.48,8.34l-3.91,0.2l1.01,3.8c1.33,4.96-0.38,10.25-4.37,13.48L30.41,64l3.06,2.47
		c3.99,3.23,5.7,8.52,4.37,13.48l-1.01,3.8l3.91,0.2c5.14,0.26,9.64,3.54,11.48,8.34l1.4,3.67l3.29-2.15c4.3-2.8,9.88-2.8,14.18,0
		l3.29,2.15l1.4-3.67c1.84-4.8,6.34-8.08,11.48-8.34l3.91-0.2l-1.01-3.8c-1.33-4.96,0.38-10.25,4.37-13.48L97.59,64L94.53,61.53z
		 M93.27,64.92c-4.6,3.72-6.58,9.83-5.05,15.55l0.38,1.41l-1.45,0.07c-5.92,0.31-11.12,4.08-13.23,9.62l-0.52,1.36l-1.21-0.79
		c-4.98-3.24-11.4-3.24-16.38,0l-1.21,0.79l-0.52-1.36c-2.11-5.54-7.31-9.31-13.23-9.62l-1.45-0.07l0.38-1.41
		c1.53-5.72-0.45-11.83-5.05-15.55L33.59,64l1.14-0.92c4.6-3.72,6.58-9.83,5.05-15.55l-0.38-1.41l1.45-0.07
		c5.92-0.31,11.12-4.08,13.23-9.62l0.52-1.36l1.21,0.79c4.98,3.24,11.4,3.24,16.38,0l1.21-0.79l0.52,1.36
		c2.11,5.54,7.31,9.31,13.23,9.62l1.45,0.07l-0.38,1.41c-1.53,5.72,0.45,11.83,5.05,15.55L94.41,64L93.27,64.92z M64,41.5
		c-12.43,0-22.5,10.07-22.5,22.5S51.57,86.5,64,86.5S86.5,76.43,86.5,64S76.43,41.5,64,41.5z M64,45c-10.48,0-19,8.52-19,19
		c0,3.01,0.68,5.88,2.03,8.55L46.13,73C44.72,70.19,44,67.16,44,64c0-11.03,8.97-20,20-20V45z"/>
</g>
<g id="row1">
	<path id="icon:4_1_" style="fill:#414141;" d="M44.347,64.065c0-10.854,8.799-19.653,19.653-19.653s19.653,8.799,19.653,19.653
		S74.854,83.717,64,83.717S44.347,74.918,44.347,64.065z M65,85.786h-2V96h2V85.786z M87.334,85.92l-6.49-6.491l-1.414,1.414
		l6.49,6.491L87.334,85.92z M49.302,80.112l-1.414-1.414l-7.222,7.223l1.414,1.414L49.302,80.112z M96,63h-9.18v2H96V63z M42.214,63
		H32v2h10.214V63z M49.302,47.888l-7.222-7.223l-1.414,1.414l7.222,7.223L49.302,47.888z M87.334,42.08l-1.414-1.414l-6.49,6.491
		l1.414,1.414L87.334,42.08z M65,32h-2v9.18h2V32z"/>
	<path id="icon:3_2_" style="display:none;fill:#414141;" d="M81.23,69.22L96,64l-14.77-5.22c-0.35-1.14-0.8-2.24-1.36-3.27
		l6.76-14.14l-14.14,6.76c-1.03-0.56-2.13-1.01-3.27-1.36L64,32l-5.22,14.77c-1.14,0.35-2.24,0.8-3.27,1.36l-14.14-6.76l6.76,14.14
		c-0.56,1.03-1.01,2.13-1.36,3.27L32,64l14.77,5.22c0.35,1.14,0.8,2.24,1.36,3.27l-6.76,14.14l14.14-6.76
		c1.03,0.56,2.13,1.01,3.27,1.36L64,96l5.22-14.77c1.14-0.35,2.24-0.8,3.27-1.36l14.14,6.76l-6.76-14.14
		C80.43,71.46,80.88,70.36,81.23,69.22z M81.76,61.1L90,64l-8.24,2.9C81.92,65.96,82,64.99,82,64S81.92,62.04,81.76,61.1z
		 M46.24,66.9L38,64l8.24-2.9C46.08,62.04,46,63.01,46,64S46.08,65.96,46.24,66.9z M45.62,45.62l7.88,3.77
		c-1.59,1.13-2.98,2.52-4.11,4.11L45.62,45.62z M45.62,82.38l3.77-7.88c1.13,1.59,2.52,2.98,4.11,4.11L45.62,82.38z M56.23,52.07
		c-1.66,1.08-3.08,2.5-4.16,4.16c-0.94,1.43-1.63,3.04-2,4.77c-0.21,0.97-0.32,1.97-0.32,3c0,1.02,0.11,2.02,0.32,3
		c0.35,1.68,1.01,3.28,1.96,4.73c0.04,0.08,0.1,0.16,0.15,0.24l-1.24,0.84c-1.76-2.61-2.69-5.65-2.69-8.81
		c0-8.68,7.07-15.75,15.75-15.75v1.5c-1.03,0-2.03,0.11-3,0.32C59.27,50.44,57.66,51.13,56.23,52.07z M64,90l-2.9-8.24
		C62.04,81.92,63.01,82,64,82s1.96-0.08,2.9-0.24L64,90z M64,46c-0.99,0-1.96,0.08-2.9,0.24L64,38l2.9,8.24
		C65.96,46.08,64.99,46,64,46z M82.38,45.62l-3.77,7.88c-1.13-1.59-2.52-2.98-4.11-4.11L82.38,45.62z M82.38,82.38l-7.88-3.77
		c1.59-1.13,2.98-2.52,4.11-4.11L82.38,82.38z"/>
	<path id="icon:2_2_" style="display:none;fill:#414141;" d="M63,29.67v14.86c0.33-0.02,0.66-0.03,1-0.03s0.67,0.01,1,0.03V29.67H63
		z M54.61,38.38l-1.86,0.75l2.92,7.23c0.6-0.28,1.21-0.53,1.85-0.75L54.61,38.38z M73.82,38.54l-3.04,7.17
		c0.63,0.24,1.25,0.5,1.84,0.8l3.04-7.19L73.82,38.54z M40.43,39.02l-1.41,1.41l10.5,10.51c0.45-0.5,0.92-0.97,1.42-1.42
		L40.43,39.02z M87.57,39.02l-10.51,10.5c0.5,0.45,0.97,0.92,1.42,1.42l10.5-10.51L87.57,39.02z M39.02,52.64l-0.78,1.84l7.34,3.11
		c0.22-0.64,0.47-1.25,0.76-1.85L39.02,52.64z M89.17,53.05l-7.37,2.98c0.27,0.6,0.51,1.22,0.72,1.86l7.4-2.98L89.17,53.05z
		 M44.53,63H29.67v2h14.86c-0.02-0.33-0.03-0.66-0.03-1C44.5,63.66,44.51,63.33,44.53,63z M83.47,63c0.02,0.33,0.03,0.66,0.03,1
		c0,0.34-0.01,0.67-0.03,1h14.86v-2H83.47z M45.66,70.63l-7.58,3.06l0.75,1.86l7.6-3.07C46.15,71.88,45.89,71.27,45.66,70.63z
		 M82.23,70.93c-0.24,0.63-0.5,1.24-0.81,1.83l7.56,3.2l0.78-1.84L82.23,70.93z M49.52,77.06l-10.5,10.51l1.41,1.41l10.51-10.5
		C50.44,78.03,49.97,77.56,49.52,77.06z M78.48,77.06c-0.45,0.5-0.92,0.97-1.42,1.42l10.51,10.5l1.41-1.41L78.48,77.06z M55.59,81.6
		l-3.25,7.68l1.84,0.78l3.26-7.69C56.8,82.14,56.19,81.88,55.59,81.6z M72.12,81.73c-0.6,0.28-1.22,0.52-1.85,0.73l3.12,7.75
		l1.86-0.74L72.12,81.73z M64,83.5c-0.34,0-0.67-0.01-1-0.03v14.86h2V83.47C64.67,83.49,64.34,83.5,64,83.5z M64,46
		c-9.94,0-18,8.06-18,18s8.06,18,18,18s18-8.06,18-18S73.94,46,64,46z M64,49.5c-8,0-14.5,6.5-14.5,14.5h-1
		c0-8.55,6.95-15.5,15.5-15.5V49.5z"/>
	<path id="icon:1_2_" style="display:none;fill:#414141;" d="M64,42c-12.15,0-22,9.85-22,22c0,12.15,9.85,22,22,22s22-9.85,22-22
		C86,51.85,76.15,42,64,42z M64,46.5c-9.65,0-17.5,7.85-17.5,17.5h-1c0-10.2,8.3-18.5,18.5-18.5V46.5z M64,94.105l-6.34-2.977H50.62
		l-4.389-5.366l-6.35-2.981l-1.568-6.699l-4.398-5.376L35.484,64l-1.57-6.705l4.398-5.376l1.568-6.699l6.35-2.981l4.389-5.366h7.041
		L64,33.895l6.34,2.977h7.041l4.389,5.366l6.35,2.981l1.568,6.699l4.398,5.376L92.516,64l1.57,6.705l-4.398,5.376L88.12,82.78
		l-6.35,2.981l-4.389,5.366H70.34L64,94.105z M51.568,89.128h6.539L64,91.895l5.894-2.767h6.539l4.077-4.983l5.884-2.763
		l1.453-6.208l4.068-4.973L90.462,64l1.452-6.201l-4.068-4.973l-1.453-6.208l-5.884-2.763l-4.077-4.983h-6.539L64,36.105
		l-5.894,2.767h-6.539l-4.077,4.983l-5.884,2.763l-1.453,6.208l-4.068,4.973L37.538,64l-1.452,6.201l4.068,4.973l1.453,6.208
		l5.884,2.763L51.568,89.128z"/>
</g>
</svg>
