<svg xmlns="http://www.w3.org/2000/svg" xmlns:xlink="http://www.w3.org/1999/xlink" version="1.1" x="0px" y="0px" viewBox="0 0 100 125" enable-background="new 0 0 100 100" xml:space="preserve"><path fill="#000000" d="M20,82.214c-1.657,0-3-1.343-3-3v-37.5c0-1.657,1.343-3,3-3s3,1.343,3,3v37.5  C23,80.871,21.657,82.214,20,82.214z"/><path fill="#000000" d="M80,82.214c-1.657,0-3-1.343-3-3V50.741c0-1.657,1.343-3,3-3s3,1.343,3,3v28.473  C83,80.871,81.657,82.214,80,82.214z"/><path fill="#000000" d="M80,75.077H20c-1.657,0-3-1.343-3-3s1.343-3,3-3h60c1.657,0,3,1.343,3,3S81.657,75.077,80,75.077z"/><path fill="#000000" d="M80,64.59c-1.657,0-3-1.343-3-3c0-0.996-1.036-1.838-2.262-1.838H42.682c-1.226,0-2.262,0.842-2.262,1.838  c0,1.657-1.343,3-3,3s-3-1.343-3-3c0-2.081-1.693-3.773-3.774-3.773H20c-1.657,0-3-1.343-3-3s1.343-3,3-3h10.645  c2.922,0,5.548,1.289,7.341,3.327c1.334-0.877,2.953-1.392,4.695-1.392h32.057c4.556,0,8.262,3.516,8.262,7.838  C83,63.247,81.657,64.59,80,64.59z"/><path fill="#000000" d="M50,43.14c-3.386,0-6.569-1.318-8.964-3.712c-4.942-4.941-4.943-12.984-0.001-17.929  c1.943-1.94,4.437-3.169,7.215-3.555c0.931-0.131,1.87,0.186,2.535,0.85c0.665,0.665,0.979,1.604,0.85,2.535  c-0.294,2.113,0.382,4.17,1.856,5.645c1.461,1.46,3.557,2.142,5.645,1.855c0.936-0.131,1.87,0.185,2.535,0.849  c0.665,0.665,0.979,1.603,0.851,2.535c-0.386,2.779-1.616,5.274-3.558,7.215C56.569,41.821,53.386,43.14,50,43.14z M45.895,25.2  c-0.216,0.167-0.423,0.348-0.618,0.542c-2.602,2.603-2.602,6.84,0.001,9.442c1.261,1.261,2.938,1.955,4.722,1.955  s3.46-0.694,4.721-1.955c0.195-0.196,0.378-0.403,0.546-0.621c-2.267-0.527-4.342-1.671-6.019-3.347  C47.561,29.53,46.419,27.452,45.895,25.2z"/><text x="0" y="115" fill="#000000" font-size="5px" font-weight="bold" font-family="'Helvetica Neue', Helvetica, Arial-Unicode, Arial, Sans-serif">Created by Slavko Janjic</text><text x="0" y="120" fill="#000000" font-size="5px" font-weight="bold" font-family="'Helvetica Neue', Helvetica, Arial-Unicode, Arial, Sans-serif">from the Noun Project</text></svg>