<?xml version="1.0" encoding="iso-8859-1"?>
<!-- Uploaded to: SVG Repo, www.svgrepo.com, Generator: SVG Repo Mixer Tools -->
<svg fill="#000000" height="800px" width="800px" version="1.1" id="Layer_1" xmlns="http://www.w3.org/2000/svg" xmlns:xlink="http://www.w3.org/1999/xlink" 
	 viewBox="0 0 512 512" xml:space="preserve">
<g>
	<g>
		<g>
			<path d="M383.873,281.963h-31.516c-10.085,0-18.262,8.176-18.262,18.262v42.65c-37.82,0-30.658,6.865-30.658-85.329
				c24.448-0.614,44.15-20.677,44.15-45.27v-98.537c0-24.593-19.702-44.656-44.15-45.27V50.179c0-10.085-8.176-18.262-18.262-18.262
				c-10.085,0-18.262,8.176-18.262,18.262V68.47c-24.448,0.614-44.15,20.677-44.15,45.27v98.536c0,24.594,19.702,44.656,44.15,45.27
				v73.154c0,26.852,21.846,48.698,48.698,48.698h18.483v64.161H155.44c-23.496,0-42.611-19.115-42.611-42.611V219.265
				c43.433-8.534,76.305-46.883,76.305-92.781c0-52.145-42.422-94.567-94.567-94.567C42.422,31.917,0,74.339,0,126.484
				c0,45.898,32.871,84.247,76.305,92.781v181.683c0,43.635,35.5,79.134,79.134,79.134c8.475,0,220.01,0,228.432,0
				c3.361,0,6.087-2.725,6.087-6.087V288.051C389.96,284.688,387.234,281.963,383.873,281.963z M112.829,126.484
				c0,10.085-8.176,18.262-18.262,18.262s-18.262-8.176-18.262-18.262V102.63c0-10.085,8.176-18.262,18.262-18.262
				s18.262,8.176,18.262,18.262V126.484z"/>
			<path d="M493.738,281.963h-61.167c-3.361,0-6.087,2.725-6.087,6.087v185.945c0,3.363,2.726,6.087,6.087,6.087h61.167
				c10.085,0,18.262-8.176,18.262-18.262V300.225C512,290.139,503.824,281.963,493.738,281.963z"/>
		</g>
	</g>
</g>
</svg>