<?xml version="1.0" encoding="utf-8"?>
<!-- Generator: Adobe Illustrator 24.1.1, SVG Export Plug-In . SVG Version: 6.00 Build 0)  -->
<svg version="1.1" id="Layer_1" xmlns="http://www.w3.org/2000/svg" xmlns:xlink="http://www.w3.org/1999/xlink" x="0px" y="0px"
	 viewBox="0 0 512 512" style="enable-background:new 0 0 512 512;" xml:space="preserve">
<g>
	<path d="M102.4,0h307.2C466.17,0,512,45.85,512,102.4v307.2c0,56.55-45.83,102.4-102.4,102.4H102.4C45.85,512,0,466.15,0,409.6
		V102.4C0,45.85,45.85,0,102.4,0z M102.4,51.2c-28.28,0-51.2,22.92-51.2,51.2v307.2c0,28.27,22.92,51.2,51.2,51.2h307.2
		c28.3,0,51.2-22.92,51.2-51.2V102.4c0-28.28-22.9-51.2-51.2-51.2H102.4z M209.23,256l90.48,90.52c9.82,10.18,9.55,26.38-0.63,36.2
		c-9.93,9.57-25.65,9.57-35.55,0L154.9,274.1c-10-10-10-26.2,0-36.2l108.63-108.63c10.15-9.82,26.38-9.52,36.18,0.63
		c9.6,9.93,9.6,25.65,0,35.58L209.23,256z"/>
</g>
</svg>