<svg xmlns="http://www.w3.org/2000/svg" xmlns:xlink="http://www.w3.org/1999/xlink" version="1.1" x="0px" y="0px" viewBox="0 0 512 640" enable-background="new 0 0 512 512" xml:space="preserve"><path d="M395.7,238.9c-10.2-32-21.4-44.9-21.4-44.9c4.2-26.3,8.3-53.2,12.6-80.7c3.6-23.7-15.6-44.9-40.6-44.9H165.8  c-25.1,0-44.3,21.2-40.6,44.9c4.2,27.5,8.4,54.4,12.6,80.7c-11,15.3-21.4,44.9-21.4,44.9c-6.7,16.9-10.3,35.2-10.3,54.6  c0,82.9,67.1,150,150,150s150-67.1,150-150C406,274.2,402.4,255.8,395.7,238.9z M199.7,124.8h37.5V87.3h37.5v37.5h37.5v37.5h-37.5  v37.5h-37.5v-37.5h-37.5V124.8z M256,406c-62.1,0-112.5-50.4-112.5-112.5c0-6.7,0.6-13.3,1.9-19.9c5.6,0.7,11.2,1.1,16.9,1.1  c35.4,0,68.1-12.2,93.7-32.8c25.7,20.6,58.3,32.8,93.7,32.8c5.6,0,11.2-0.4,16.9-0.9c1.3,6.4,1.9,12.9,1.9,19.7  C368.5,355.6,318.1,406,256,406z"/><text x="0" y="527" fill="#000000" font-size="5px" font-weight="bold" font-family="'Helvetica Neue', Helvetica, Arial-Unicode, Arial, Sans-serif">Created by Creative Stall</text><text x="0" y="532" fill="#000000" font-size="5px" font-weight="bold" font-family="'Helvetica Neue', Helvetica, Arial-Unicode, Arial, Sans-serif">from the Noun Project</text></svg>