<svg xmlns="http://www.w3.org/2000/svg" viewBox="0 0 24 24"><path d="M8,14a4,4,0,0,1,8,0Zm8.586-5A1,1,0,1,0,18,10.414l.707-.707a1,1,0,0,0-1.414-1.414ZM21,12H20a1,1,0,0,0,0,2h1a1,1,0,0,0,0-2ZM4,14a1,1,0,0,0,0-2H3a1,1,0,0,0,0,2ZM5.293,8.293a1,1,0,0,0,0,1.414L6,10.414A1,1,0,1,0,7.414,9l-.707-.707A1,1,0,0,0,5.293,8.293ZM6,18H18a1,1,0,0,0,0-2H6a1,1,0,0,0,0,2Zm10,3a1,1,0,0,0-1-1H9a1,1,0,0,0,0,2h6A1,1,0,0,0,16,21ZM12,2a1,1,0,0,0-1,1V4.586l-.293-.293A1,1,0,0,0,9.293,5.707l2,2a1,1,0,0,0,1.414,0l2-2a1,1,0,1,0-1.414-1.414L13,4.586V3A1,1,0,0,0,12,2Z"/></svg>