<svg id="Layer_1" data-name="Layer 1" xmlns="http://www.w3.org/2000/svg" viewBox="0 0 98.63 122.88"><title>letterhead</title><path d="M98.61,6.43A6.42,6.42,0,0,0,92.21,0H6.43A6.43,6.43,0,0,0,0,6.43v110a6.42,6.42,0,0,0,6.43,6.43h55.2l37-35.57q0-40.45,0-80.88ZM13.7,12.17H30.4a1.9,1.9,0,0,1,1.89,1.89V29.33a1.91,1.91,0,0,1-1.89,1.89H13.7a1.91,1.91,0,0,1-1.89-1.89V14.06a1.89,1.89,0,0,1,1.89-1.89Zm71.52.41c1.61,0,1.64,2.75,0,2.75H39.28c-1.65,0-1.61-2.75,0-2.75ZM67.71,30.81c1.61,0,1.65-2.75,0-2.75H39.28c-1.65,0-1.61,2.75,0,2.75ZM39.28,20.32c-1.61,0-1.64,2.75,0,2.75H77.47c1.65,0,1.62-2.75,0-2.75ZM94.44,4.19V85.25H63.87a3.61,3.61,0,0,0-3.61,3.61v29.49H4.19V4.19Z"/></svg>