<svg xmlns="http://www.w3.org/2000/svg" xmlns:xlink="http://www.w3.org/1999/xlink" version="1.1" x="0px" y="0px" viewBox="0 0 100 125" style="enable-background:new 0 0 100 100;" xml:space="preserve"><path d="M16.6,72.5v-49c0-0.2-0.1-0.2-0.2-0.2c0,0-0.2,0-0.7,0C13.7,23.3,8.9,27.4,5,56c-0.2,1.4,1,2.7,2.4,2.7H10  c1,0,1.7,0.9,1.6,1.9L10,72.9c-0.3,2,1.3,3.8,3.3,3.8C15.1,76.8,16.6,75.3,16.6,72.5z"/><path d="M93.1,24.2c-0.8,0.1-1.4,0.9-1.4,1.7v11.5c0,0.6-0.3,1.2-0.9,1.5c-1,0.5-2.2-0.3-2.2-1.4V25.9c0-0.9-0.6-1.7-1.5-1.7  c-0.1,0-0.1,0-0.2,0s-0.1,0-0.2,0c-0.9,0.1-1.5,0.9-1.5,1.7v11.6c0,1.1-1.1,1.9-2.2,1.4c-0.6-0.3-0.9-0.9-0.9-1.5V25.9  c0-0.8-0.6-1.6-1.4-1.7c-1-0.2-1.9,0.6-1.9,1.6V37c0,3.7,0.9,6.9,3.5,7.8l1.1,0.4c0.5,0.2,0.8,0.6,1,1v1.4l-1.2,19.1l-0.4,4.9  c-0.2,2.4,1.7,4.4,4,4.4c2.4,0,4.2-2,4.1-4.4l-0.4-4.9l-1.2-19.1v-1.4c0.1-0.5,0.5-0.8,1-1l1.1-0.4c2.6-0.9,3.5-4.3,3.5-7.8V25.8  C95,24.8,94.1,24,93.1,24.2z"/><path d="M48.9,21.9c-15.5,0-28.1,12.6-28.1,28.1c0,15.5,12.6,28.1,28.1,28.1C64.4,78.1,77,65.5,77,50C77,34.5,64.4,21.9,48.9,21.9z   M48.9,70.2c-11.2,0-20.2-9-20.2-20.2c0-11.2,9-20.2,20.2-20.2s20.2,9,20.2,20.2C69.1,61.2,60,70.2,48.9,70.2z"/><ellipse transform="matrix(0.7071 -0.7071 0.7071 0.7071 -21.0366 49.213)" cx="48.9" cy="50" rx="14.4" ry="14.4"/><text x="0" y="115" fill="#000000" font-size="5px" font-weight="bold" font-family="'Helvetica Neue', Helvetica, Arial-Unicode, Arial, Sans-serif">Created by Nubaia Karim Barsha</text><text x="0" y="120" fill="#000000" font-size="5px" font-weight="bold" font-family="'Helvetica Neue', Helvetica, Arial-Unicode, Arial, Sans-serif">from the Noun Project</text></svg>