<?xml version="1.0" encoding="iso-8859-1"?>
<!-- Uploaded to: SVG Repo, www.svgrepo.com, Generator: SVG Repo Mixer Tools -->
<svg version="1.1" id="Layer_1" xmlns="http://www.w3.org/2000/svg" xmlns:xlink="http://www.w3.org/1999/xlink" 
	 viewBox="0 0 512 512" xml:space="preserve">
<polygon style="fill:#3C5D76;" points="256,153.6 256,102.4 0,102.4 0,187.733 256,221.867 512,187.733 512,153.6 "/>
<polygon style="fill:#1E2E3B;" points="256,153.6 256,221.867 512,187.733 512,153.6 "/>
<polygon style="fill:#E4F1FB;" points="392.533,17.067 68.267,17.067 68.267,460.8 443.733,460.8 443.733,68.267 "/>
<polygon style="fill:#C9E3F7;" points="392.533,17.067 256,17.067 256,460.8 443.733,460.8 443.733,68.267 "/>
<g>
	<rect x="204.8" y="102.4" style="fill:#78B9EB;" width="187.733" height="51.2"/>
	<rect x="119.467" y="102.4" style="fill:#78B9EB;" width="51.2" height="51.2"/>
</g>
<rect x="256" y="102.4" style="fill:#5A8BB0;" width="136.533" height="51.2"/>
<polygon style="fill:#78B9EB;" points="392.533,17.067 392.533,68.267 443.733,68.267 "/>
<rect y="187.733" style="fill:#D80027;" width="443.733" height="307.2"/>
<rect x="256" y="187.733" style="fill:#A2001D;" width="256" height="307.2"/>
<polygon style="fill:#FFFFFF;" points="341.333,307.2 290.133,307.2 290.133,256 221.867,256 221.867,307.2 170.667,307.2 
	170.667,375.467 221.867,375.467 221.867,426.667 290.133,426.667 290.133,375.467 341.333,375.467 "/>
</svg>