<!--?xml version="1.0" encoding="iso-8859-1"?-->
<!-- Generator: Adobe Illustrator 22.1.0, SVG Export Plug-In . SVG Version: 6.00 Build 0)  -->
<svg version="1.1" id="_x36_" xmlns="http://www.w3.org/2000/svg" xmlns:xlink="http://www.w3.org/1999/xlink" x="0px" y="0px" viewBox="0 0 512 512" style="width: 256px; height: 256px;" xml:space="preserve">
<style type="text/css">
	.st0{fill:#C92A4E;}
	.st1{fill:#3BA9B8;}
	.st2{opacity:0.2;fill:#FFFFFF;}
	.st3{opacity:5.000000e-02;fill:#040000;}
</style>
<g>
	<path class="st0" d="M468.1,256.7c58.5-58.5,58.5-154.3,0-212.8l0,0c-58.5-58.5-154.3-58.5-212.8,0L149.6,149.6l212.8,212.8
		L468.1,256.7z"></path>
	<path class="st1" d="M149.6,149.6L43.9,255.3c-58.5,58.5-58.5,154.3,0,212.8l0,0c58.5,58.5,154.3,58.5,212.8,0l105.7-105.7
		L149.6,149.6z"></path>
	
		<ellipse transform="matrix(0.9979 -6.484443e-02 6.484443e-02 0.9979 -3.8303 23.1882)" class="st2" cx="355.3" cy="70.6" rx="56.8" ry="43.3"></ellipse>
	<path class="st3" d="M468.1,43.9L468.1,43.9L43.9,468.1l0,0c58.5,58.5,154.3,58.5,212.8,0l105.7-105.7l105.7-105.7
		C526.6,198.1,526.6,102.4,468.1,43.9z"></path>
</g>
</svg>
