<?xml version="1.0" encoding="iso-8859-1"?>
<!-- Uploaded to: SVG Repo, www.svgrepo.com, Generator: SVG Repo Mixer Tools -->
<svg fill="#000000" height="800px" width="800px" version="1.1" id="Layer_1" xmlns="http://www.w3.org/2000/svg" xmlns:xlink="http://www.w3.org/1999/xlink" 
	 viewBox="0 0 512 512" xml:space="preserve">
<g>
	<g>
		<path d="M400.746,0H110.75C87.185,0,68.267,19.51,68.267,43.081v426.506c0,23.571,18.919,42.413,42.483,42.413h289.996
			c23.565,0,42.987-18.842,42.987-42.413V43.081C443.733,19.51,424.31,0,400.746,0z M426.667,469.587
			c0,14.16-11.767,25.346-25.921,25.346H110.75c-14.154,0-25.417-11.185-25.417-25.346V43.081c0-14.16,11.263-26.015,25.417-26.015
			h289.996c14.154,0,25.921,11.854,25.921,26.015V469.587z"/>
	</g>
</g>
<g>
	<g>
		<path d="M298.414,59.733h-85.333c-4.712,0-8.533,3.821-8.533,8.533s3.821,8.533,8.533,8.533h85.333
			c4.713,0,8.533-3.821,8.533-8.533S303.127,59.733,298.414,59.733z"/>
	</g>
</g>
<g>
	<g>
		<path d="M375.215,110.933H136.281c-4.712,0-8.533,3.821-8.533,8.533s3.821,8.533,8.533,8.533h238.933
			c4.713,0,8.533-3.821,8.533-8.533S379.927,110.933,375.215,110.933z"/>
	</g>
</g>
<g>
	<g>
		<path d="M375.215,162.133H136.281c-4.712,0-8.533,3.821-8.533,8.533s3.821,8.533,8.533,8.533h238.933
			c4.713,0,8.533-3.821,8.533-8.533S379.927,162.133,375.215,162.133z"/>
	</g>
</g>
<g>
	<g>
		<path d="M375.215,213.333H136.281c-4.712,0-8.533,3.821-8.533,8.533s3.821,8.533,8.533,8.533h238.933
			c4.713,0,8.533-3.821,8.533-8.533S379.927,213.333,375.215,213.333z"/>
	</g>
</g>
<g>
	<g>
		<path d="M349.615,324.267h-50.948v-50.865c0-4.713-4.073-8.869-8.786-8.869h-68.267c-4.712,0-8.281,4.156-8.281,8.869v50.865
			h-51.452c-4.712,0-8.281,4.156-8.281,8.869v68.267c0,4.713,3.569,8.198,8.281,8.198h51.452v51.535
			c0,4.713,3.569,8.198,8.281,8.198h68.267c4.713,0,8.786-3.485,8.786-8.198V409.6h50.948c4.713,0,8.786-3.485,8.786-8.198v-68.267
			C358.4,328.423,354.327,324.267,349.615,324.267z M341.333,392.533h-51.452c-4.712,0-8.281,4.156-8.281,8.869v50.865h-51.2
			v-50.865c0-4.713-4.073-8.869-8.786-8.869h-50.948v-51.2h50.948c4.713,0,8.786-3.485,8.786-8.198V281.6h51.2v51.535
			c0,4.713,3.569,8.198,8.281,8.198h51.452V392.533z"/>
	</g>
</g>
</svg>