<svg class="svg-icon" style="width: 1em; height: 1em;vertical-align: middle;fill: currentColor;overflow: hidden;" viewBox="0 0 1024 1024" version="1.1" xmlns="http://www.w3.org/2000/svg"><path d="M950.144 314.496c-0.128-2.005333-0.490667-3.925333-1.173333-5.802667-0.234667-0.64-0.384-1.258667-0.661333-1.856-1.024-2.24-2.325333-4.394667-4.138667-6.229333L649.792 6.250667c-1.834667-1.834667-4.010667-3.136-6.250667-4.181333-0.576-0.256-1.173333-0.405333-1.770667-0.618667-1.941333-0.682667-3.904-1.088-5.930667-1.194667C635.413333 0.213333 635.050667 0 634.624 0L242.133333 0C149.184 0 73.578667 75.605333 73.578667 168.554667L73.578667 855.466667c0 92.906667 75.605333 168.533333 168.554667 168.533333l539.690667 0c92.906667 0 168.576-75.626667 168.554667-168.533333L950.378667 315.733333C950.4 315.285333 950.165333 314.922667 950.144 314.496zM656 72.938667l221.418667 221.418667-169.173333 0c-28.8 0-52.245333-23.424-52.245333-52.224L656 72.938667zM781.824 981.248 242.133333 981.248c-69.376 0-125.824-56.448-125.824-125.824L116.309333 168.533333c0-69.376 56.448-125.824 125.824-125.824l371.2 0 0 199.424c0 52.352 42.581333 94.954667 94.912 94.954667l199.381333 0 0 518.336C907.626667 924.8 851.2 981.248 781.824 981.248z"  /><path d="M757.290667 490.645333l-150.378667 0 0-150.357333c0-11.797333-9.536-21.376-21.376-21.376l-147.157333 0c-11.797333 0-21.354667 9.578667-21.354667 21.376l0 150.357333L266.666667 490.645333c-11.797333 0-21.376 9.557333-21.376 21.354667l0 147.157333c0 11.84 9.578667 21.376 21.376 21.376l150.357333 0 0 150.378667c0 11.818667 9.557333 21.354667 21.354667 21.354667l147.157333 0c11.84 0 21.376-9.536 21.376-21.354667L606.912 680.533333l150.378667 0c11.797333 0 21.376-9.536 21.376-21.376L778.666667 512C778.666667 500.224 769.088 490.645333 757.290667 490.645333zM735.957333 637.781333l-150.378667 0c-11.797333 0-21.333333 9.557333-21.333333 21.376l0 150.378667-104.469333 0L459.776 659.2c0-11.861333-9.557333-21.376-21.354667-21.376l-150.357333 0 0-104.448 150.357333 0c11.776 0 21.354667-9.578667 21.354667-21.376l0-150.4 104.469333 0 0 150.357333c0 11.797333 9.536 21.376 21.333333 21.376l150.378667 0L735.957333 637.781333z"  /></svg>