<?xml version="1.0" encoding="iso-8859-1"?>
<!-- Generator: Adobe Illustrator 19.0.0, SVG Export Plug-In . SVG Version: 6.00 Build 0)  -->
<svg version="1.1" id="Capa_1" xmlns="http://www.w3.org/2000/svg" xmlns:xlink="http://www.w3.org/1999/xlink" x="0px" y="0px"
	 viewBox="0 0 480 480" style="enable-background:new 0 0 480 480;" xml:space="preserve">
<path style="fill:#8BC3EE;" d="M320,472l96-96h-96V472z"/>
<g>
	<path style="fill:#C5E1F6;" d="M64,472h256v-96h96V8H64V472z M193.944,169.944L160,136l-33.944,33.944L160,136l-41.944-41.944
		L160,136l33.944-33.944L160,136L193.944,169.944z M112,88V56h32c8.837,0,16,7.163,16,16s-7.163,16-16,16H112z"/>
	<path style="fill:#C5E1F6;" d="M160,72c0-8.837-7.163-16-16-16h-32v32h32C152.837,88,160,80.837,160,72z"/>
</g>
<path d="M144,240h-32c-4.418,0-8-3.582-8-8s3.582-8,8-8h32c4.418,0,8,3.582,8,8S148.418,240,144,240z"/>
<path d="M368,240H176c-4.418,0-8-3.582-8-8s3.582-8,8-8h192c4.418,0,8,3.582,8,8S372.418,240,368,240z"/>
<path d="M144,288h-32c-4.418,0-8-3.582-8-8s3.582-8,8-8h32c4.418,0,8,3.582,8,8S148.418,288,144,288z"/>
<path d="M368,288H176c-4.418,0-8-3.582-8-8s3.582-8,8-8h192c4.418,0,8,3.582,8,8S372.418,288,368,288z"/>
<path d="M144,336h-32c-4.418,0-8-3.582-8-8s3.582-8,8-8h32c4.418,0,8,3.582,8,8S148.418,336,144,336z"/>
<path d="M368,336H176c-4.418,0-8-3.582-8-8s3.582-8,8-8h192c4.418,0,8,3.582,8,8S372.418,336,368,336z"/>
<path style="fill:#231F20;" d="M416,0H64c-4.418,0-8,3.582-8,8v464c0,4.418,3.582,8,8,8h256c2.122,0,4.156-0.844,5.656-2.344l96-96
	c1.5-1.5,2.344-3.534,2.344-5.656V8C424,3.582,420.418,0,416,0z M72,16h336v352h-88c-4.418,0-8,3.582-8,8v88H72V16z M396.688,384
	L328,452.688V384H396.688z"/>
<path d="M171.312,136l28.288-28.28c3.178-3.069,3.266-8.134,0.197-11.312c-3.069-3.178-8.134-3.266-11.312-0.197
	c-0.067,0.064-0.132,0.13-0.197,0.197L160,124.688L131.312,96H144c13.255,0,24-10.745,24-24s-10.745-24-24-24h-32
	c-4.418,0-8,3.582-8,8v88c0,4.418,3.582,8,8,8c4.418,0,8-3.582,8-8v-36.688L148.688,136L120.4,164.28
	c-3.178,3.069-3.266,8.134-0.197,11.312c3.069,3.178,8.134,3.266,11.312,0.197c0.067-0.064,0.132-0.13,0.197-0.197L160,147.312
	l28.288,28.28c3.069,3.178,8.134,3.266,11.312,0.197c3.178-3.069,3.266-8.134,0.197-11.312c-0.064-0.067-0.13-0.132-0.197-0.197
	L171.312,136z M120,64h24c4.418,0,8,3.582,8,8s-3.582,8-8,8h-24V64z"/>
<g>
</g>
<g>
</g>
<g>
</g>
<g>
</g>
<g>
</g>
<g>
</g>
<g>
</g>
<g>
</g>
<g>
</g>
<g>
</g>
<g>
</g>
<g>
</g>
<g>
</g>
<g>
</g>
<g>
</g>
</svg>
