<?xml version="1.0" encoding="utf-8"?>
<!-- Uploaded to: SVG Repo, www.svgrepo.com, Generator: SVG Repo Mixer Tools -->
<svg width="800px" height="800px" viewBox="-75.66 0 360.206 360.206" xmlns="http://www.w3.org/2000/svg"><defs><style>.a{fill:#bfbcbb;}.b{fill:#211715;}.c{fill:#ffffff;}.d{fill:#a2d2ee;}</style></defs><path class="a" d="M116.686,134.018a17.565,17.565,0,0,1-3.266,11.455c-2.345,3.178-6.3,5.228-9.687,6.849-4.5,2.154-15.751,3.405-21.182,3.405S65.8,154.249,61.307,152.1c-3.383-1.621-7.28-3.444-9.624-6.622a17.571,17.571,0,0,1-3.267-11.455"/><path class="b" d="M114.286,134.018a14.488,14.488,0,0,1-8.725,14.694,23.722,23.722,0,0,1-6.526,2.644,65.2,65.2,0,0,1-8.187,1.417,66.053,66.053,0,0,1-14.767.141,77.277,77.277,0,0,1-8.27-1.327c-1.2-.263-2.389-.558-3.559-.927a14.947,14.947,0,0,1-2.728-1.114c-3-1.452-6.273-3.034-8.193-5.886a16.219,16.219,0,0,1-2.515-9.642c.054-3.09-4.746-3.09-4.8,0a21.634,21.634,0,0,0,2.242,10.51,18.683,18.683,0,0,0,7.463,7.409,36.187,36.187,0,0,0,8.077,3.6,64.755,64.755,0,0,0,8.89,1.756,69.878,69.878,0,0,0,16.77.433c6.057-.609,12.042-1.512,17.5-4.323,3.591-1.85,6.944-4.174,9.159-7.622a20.867,20.867,0,0,0,2.969-11.76c-.053-3.085-4.853-3.095-4.8,0Z"/><path class="c" d="M158.921,110.3c.386-2.864.7-5.385.931-7.479.294-2.671-.278-11.72-9.49-13.548-7.062-1.4-12.494,4.512-13.809,9.789-8.262,33.166-19.309,76.994-26.178,101.788-1.052,3.793-2.466,8.583-4.025,12.734-1.1,2.94-4.938,2.856-7.015,3.112-.731-32.874-1.21-77.266-1.732-102.419-.133-6.362-2.692-15.725-13.284-16.009-11.628-.312-13.893,10.275-14.16,15.709-1.084,22.065-3.218,70.988-4.732,103.254-.9,7.5-1.656,11.279-4.362,17.569a14.083,14.083,0,0,1-1.436,2.475l-.969-1.2c-6.809-7.677-11.815-13.613-18.372-21.059-4.763-5.406-12.662-13.112-19.2-16.827a12.934,12.934,0,0,0-11.349-.967,12.314,12.314,0,0,0-5.424,5.207,12.2,12.2,0,0,0-1.733,8.359c.49,2.476,1.984,4.627,3.411,6.713A214.769,214.769,0,0,1,31.03,266.609q1.047,2.7,2.2,5.507c7.171,17.364,17.423,37,29.426,50.8,3.261,3.748,7.489,7.069,9.063,11.781a70.422,70.422,0,0,1,3.287,23.193H166.8l-.7-15.211a14.394,14.394,0,0,1,.57-6A19.694,19.694,0,0,1,169.5,332.4a45.082,45.082,0,0,0,5.25-9.983c8.586-21,12.4-43.6,16.156-65.974,1.386-8.256,2.375-14.653,3.76-22.909,4.287-30.321,9.213-62.923,11.8-86.037a12.455,12.455,0,0,0-3.056-9.679,8.062,8.062,0,0,0-4.721-2.522,12.112,12.112,0,0,0-7.458,1.242c-4.033,2.125-5.346,6.924-6.246,11.393-5.08,25.224-6.238,30.651-9.747,47.77,1.683-8.874,3.357-17.938,4.615-25.575,3.858-23.4,5.558-34.016,7.621-54.214.272-2.669.051-11.793-10-13.86-6.812-1.4-12.869,4.808-14,10.144-4.876,23-14.565,67.316-17.729,81.725l-1.41,6.418C148.657,175.864,155.916,132.641,158.921,110.3Z"/><path class="b" d="M101.732,216.557c-.479-21.615-.78-43.233-1.105-64.851q-.219-14.61-.467-29.22c-.134-7.477.476-15.73-4.754-21.791-5.521-6.4-17.03-6.537-22.715-.295-4.652,5.107-4.856,11.932-5.167,18.438q-1.326,27.741-2.536,55.487-.693,15.374-1.4,30.746c-.216,4.707-.2,9.5-.816,14.174a54.087,54.087,0,0,1-3.539,13.765,19.478,19.478,0,0,1-4.333,6.152c-2.17,2.2,1.222,5.6,3.394,3.394a23.611,23.611,0,0,0,4.84-6.545,51.988,51.988,0,0,0,2.574-6.92,62.791,62.791,0,0,0,2.241-14.531q.672-14.416,1.321-28.832,1.308-28.882,2.622-57.764.253-5.454.514-10.907c.067-1.388.1-2.784.226-4.168q.045-.492.109-.983c-.072.55.06-.348.088-.506.13-.737.292-1.467.491-2.188a12.837,12.837,0,0,1,1.664-3.93,9.832,9.832,0,0,1,2.839-3.007,12.162,12.162,0,0,1,10.73-.767,10.576,10.576,0,0,1,5.692,6.822,21.145,21.145,0,0,1,.625,2.5,13.042,13.042,0,0,1,.263,2.055c.13,1.728.109,3.472.143,5.2q.264,13.734.455,27.472c.323,21.262.615,42.526,1.045,63.787q.074,3.6.153,7.2c.068,3.084,4.868,3.095,4.8,0Z"/><path class="b" d="M145.062,209.863c2.848-15.675,5.511-31.385,8.12-47.1,2.8-16.859,5.583-33.732,7.9-50.666.755-5.529,2.2-11.408,0-16.786a13.582,13.582,0,0,0-9.389-8.2,13.791,13.791,0,0,0-13.964,4.717c-3.363,4.027-4.117,9.124-5.353,14.071q-2.062,8.259-4.136,16.513-4.281,17.03-8.634,34.04-3.981,15.526-8.088,31.02-1.683,6.307-3.418,12.6c-.789,2.849-1.619,5.687-2.537,8.5a37.151,37.151,0,0,1-1.45,4.173,1.785,1.785,0,0,1-1.166.972c-1.642.58-3.129.354-4.981.793-3,.711-1.732,5.34,1.276,4.628.17-.04.338-.07.51-.1-.508.086-.13.023-.02.013.4-.038.8-.072,1.2-.114a15.18,15.18,0,0,0,3.287-.592c2.628-.887,3.9-2.6,4.817-5.14,1.808-5,3.223-10.129,4.624-15.255,2.559-9.361,5.021-18.749,7.457-28.142q8.453-32.6,16.546-65.284c1.076-4.315,1.819-8.8,5.784-11.484a9,9,0,0,1,11.026.8,6.919,6.919,0,0,1,1.391,1.7c.192.313.362.636.53.962a4.145,4.145,0,0,1,.389.949,14.754,14.754,0,0,1,.552,2.121c.03.167.057.335.083.5.063.4-.051-.58,0,.039.03.355.063.708.076,1.065a43.742,43.742,0,0,1-.706,7.074l-.141,1.069c-.019.146-.039.292-.058.438-.1.734.067-.489-.034.255q-.157,1.164-.319,2.327-.369,2.649-.755,5.3-.851,5.841-1.756,11.674-2.046,13.26-4.239,26.5-4.011,24.393-8.329,48.737-.362,2.019-.727,4.036a2.466,2.466,0,0,0,1.676,2.952,2.421,2.421,0,0,0,2.952-1.676Z"/><path class="b" d="M28.642,266.926a252.276,252.276,0,0,0,17.172,36.122A156.934,156.934,0,0,0,56.9,319.639a93.506,93.506,0,0,0,6.764,7.87c2.027,2.106,4.177,4.247,5.4,6.947a43.081,43.081,0,0,1,2.759,11,75.776,75.776,0,0,1,.786,12.429c-.035,3.09,4.765,3.092,4.8,0a74.989,74.989,0,0,0-2.842-22.145,22.737,22.737,0,0,0-4.539-8.4c-2-2.376-4.287-4.489-6.3-6.851-8.852-10.363-15.708-22.462-21.661-34.671q-4.824-9.894-8.8-20.169a2.469,2.469,0,0,0-2.952-1.676,2.417,2.417,0,0,0-1.676,2.952Z"/><path class="b" d="M33.419,266.3A223.818,223.818,0,0,0,21.9,239.6,276.708,276.708,0,0,0,7,214.705a10.66,10.66,0,0,1-2.2-5.859,11.27,11.27,0,0,1,2.09-6.022,8.874,8.874,0,0,1,9.959-3.77c3.767.955,7.106,3.752,10.033,6.2a107.755,107.755,0,0,1,9.247,8.771c7.218,7.649,13.85,15.876,20.826,23.746,2.053,2.317,5.437-1.088,3.394-3.394-6.623-7.473-12.975-15.2-19.724-22.563a110.721,110.721,0,0,0-9.574-9.3c-3.355-2.871-7.01-5.909-11.169-7.522a14.069,14.069,0,0,0-13.8,1.7C2.4,199.6-.264,204.739.021,209.5c.308,5.137,3.979,9.223,6.657,13.356q4.179,6.45,7.9,13.184A214.808,214.808,0,0,1,28.79,267.573a2.462,2.462,0,0,0,2.953,1.676,2.421,2.421,0,0,0,1.676-2.952Z"/><path class="b" d="M148.061,194.554q3.79-17.266,7.548-34.54,4.611-21.178,9.157-42.372c.628-2.942.966-6,2.67-8.552,1.766-2.645,4.782-4.836,8.057-4.842a10.212,10.212,0,0,1,4.715,1.261,9.118,9.118,0,0,1,2.923,2.434,9.272,9.272,0,0,1,1.418,2.811,14.291,14.291,0,0,1,.39,1.537c.051.26.094.521.131.783-.08-.571.01.2.024.373a44.887,44.887,0,0,1-.614,8.138q-.63,5.8-1.364,11.583c-.952,7.445-2.089,14.864-3.279,22.274-2.849,17.746-6.094,35.405-9.478,53.057q-.584,3.048-1.165,6.1a2.462,2.462,0,0,0,1.676,2.952,2.421,2.421,0,0,0,2.952-1.676c3.465-18.2,6.939-36.382,9.918-54.668,1.3-7.986,2.565-15.978,3.644-24q.809-6,1.5-12.021a101.131,101.131,0,0,0,1.059-10.447c.049-5.6-2.65-11.168-7.855-13.652a13.959,13.959,0,0,0-12.173-.314,16.511,16.511,0,0,0-7.981,8.467c-1.221,2.889-1.6,6.218-2.251,9.274q-1.1,5.13-2.2,10.257-2.445,11.347-4.912,22.69-4.225,19.447-8.488,38.887-.321,1.464-.643,2.929c-.661,3.011,3.966,4.3,4.629,1.276Z"/><path class="b" d="M178.868,189.947q2.208-10.743,4.409-21.49,1.464-7.185,2.914-14.375c.574-2.844,1.05-5.729,1.805-8.532a12.4,12.4,0,0,1,2.97-5.892,8.865,8.865,0,0,1,6.882-2.07,6.7,6.7,0,0,1,5.329,4.132c1.116,2.321,1.018,4.7.734,7.184q-.423,3.7-.881,7.39c-1.41,11.437-3,22.852-4.619,34.261-2,14.115-4.063,28.221-6.059,42.336a2.481,2.481,0,0,0,1.676,2.952,2.417,2.417,0,0,0,2.953-1.676c3.615-25.565,7.516-51.1,10.707-76.72q.508-4.091.982-8.186a17.482,17.482,0,0,0-.575-8.144,12.737,12.737,0,0,0-5.545-7,12.984,12.984,0,0,0-9.161-.943c-5.973,1.424-8.887,6.386-10.248,11.987-1.381,5.689-2.355,11.5-3.52,17.239q-2.667,13.143-5.382,26.274a2.459,2.459,0,0,0,1.677,2.952,2.422,2.422,0,0,0,2.952-1.676Z"/><path class="b" d="M192.352,232.891c-2.771,16.533-5.2,33.138-8.559,49.567-1.709,8.368-3.695,16.687-6.212,24.851q-1.851,6-4.111,11.867a54.164,54.164,0,0,1-5.388,11.087c-1.245,1.824-2.759,3.418-3.609,5.486a16.107,16.107,0,0,0-.777,6.925q.34,7.607.705,15.211c.143,3.076,4.944,3.093,4.8,0l-.614-13.248a26.93,26.93,0,0,1-.022-5.878c.338-1.894,1.621-3.322,2.748-4.81a47.947,47.947,0,0,0,5.839-11.115q2.369-5.82,4.287-11.81c5.19-16.068,8.2-32.729,11.007-49.347,1.549-9.164,3-18.344,4.535-27.51a2.472,2.472,0,0,0-1.677-2.952,2.419,2.419,0,0,0-2.952,1.676Z"/><path class="b" d="M9.292,206.7c2.758,2.462,5.659,4.834,8.248,7.473.752.767,1.472,1.566,2.152,2.4a2.944,2.944,0,0,1,.608.9c-.105-.265,0,.017-.009.1.045-.413,0,.09-.006.18-.012.24.111-.23-.034.17-.247.682.123-.182-.081.184-.088.137-.079.138.027,0l-.168.179c-.176.161-.356.316-.539.469-.759.637-1.529,1.261-2.323,1.853a2.474,2.474,0,0,0-.861,3.283,2.417,2.417,0,0,0,3.284.861c1.934-1.442,4.535-2.993,5.254-5.446a5.744,5.744,0,0,0-.063-3.471,11.057,11.057,0,0,0-2.316-3.4c-2.908-3.359-6.469-6.179-9.779-9.132a2.456,2.456,0,0,0-3.394,0,2.423,2.423,0,0,0,0,3.394Z"/><path class="c" d="M45.157,47.374h0a18.076,18.076,0,0,1,18.075-17.99h39.009c9.96,0,17.432,8.073,18.079,18.011,1.654,25.44.732,62.325-.012,77.663-.225,4.64-1.02,8.276-3.613,11.454s-6.972,5.228-10.714,6.849c-4.972,2.154-17.423,3.405-23.43,3.405s-18.526-1.478-23.5-3.631c-3.742-1.621-8.052-3.445-10.645-6.623s-3.5-6.81-3.613-11.454C44.415,109.421,43.735,71.985,45.157,47.374Z"/><path class="b" d="M47.557,47.374a15.787,15.787,0,0,1,8.026-13.6c3.333-1.875,6.825-1.99,10.514-1.99H96.012c3.017,0,6.351-.33,9.324.307A15.993,15.993,0,0,1,117,42.82a33.626,33.626,0,0,1,1.178,8.976q.26,5.037.4,10.08c.405,13.955.334,27.926.036,41.883q-.18,8.392-.5,16.78c-.227,5.668-.069,11.83-4.685,15.9a21.62,21.62,0,0,1-4.257,2.783c-.757.4-1.528.774-2.305,1.134q-.525.243-1.055.478c-.129.057-1.272.535-.869.379a38.992,38.992,0,0,1-7.777,1.884,82.776,82.776,0,0,1-16.816,1.214,82.058,82.058,0,0,1-17.555-2.464c-.565-.151-1.127-.314-1.683-.5-.231-.077-.458-.162-.688-.241-.109-.038-.215-.082-.322-.123.465.18-.264-.113-.343-.147-1.6-.693-3.194-1.394-4.727-2.222a13.818,13.818,0,0,1-6.555-6.54c-1.219-2.8-1.249-5.886-1.318-8.884q-.083-3.516-.149-7.03-.173-9.058-.253-18.118c-.118-13.832-.1-27.674.389-41.5q.162-4.588.419-9.173c.177-3.086-4.624-3.076-4.8,0-.812,14.176-.9,28.4-.855,42.59.036,11.9.017,23.847.515,35.739A20.968,20.968,0,0,0,45.44,136.51a20.915,20.915,0,0,0,8.731,7.051,41.964,41.964,0,0,0,8.343,3.171,87.688,87.688,0,0,0,9.833,1.683,81.811,81.811,0,0,0,17.213.4c6.228-.533,12.726-1.211,18.493-3.761a30.412,30.412,0,0,0,9.455-5.874,17.634,17.634,0,0,0,4.762-9.8c.854-5.4.737-11.046.9-16.5.429-14.066.6-28.147.39-42.218-.105-7.124-.307-14.249-.725-21.362a28.438,28.438,0,0,0-2.11-10.054,20.7,20.7,0,0,0-5.679-7.591,21.085,21.085,0,0,0-13.9-4.678H70.53a76.167,76.167,0,0,0-10.034.2,20.54,20.54,0,0,0-15.516,11,20.822,20.822,0,0,0-2.223,9.192C42.742,50.463,47.542,50.467,47.557,47.374Z"/><rect class="d" x="53.854" y="49.673" width="56.63" height="53.13" rx="6.951"/><path class="b" d="M60.805,105.2h40.683c.658,0,1.318.012,1.977,0a9.467,9.467,0,0,0,7.218-3.342c2.175-2.655,2.2-5.614,2.2-8.8V58.42c0-.593.012-1.189,0-1.783a9.533,9.533,0,0,0-4.493-8c-2.464-1.517-5.165-1.362-7.908-1.362H64.645c-2.2,0-4.694-.243-6.8.483A9.451,9.451,0,0,0,51.53,55.6a18.838,18.838,0,0,0-.076,2.254V92.27c0,2.751-.211,5.481,1.119,8.017a9.492,9.492,0,0,0,8.232,4.916c3.09.076,3.089-4.724,0-4.8a4.589,4.589,0,0,1-4.546-4.377c-.017-.515-.005-1.032-.005-1.547v-33.4a24.983,24.983,0,0,1,.121-5.5,4.6,4.6,0,0,1,4.454-3.5c.546-.01,1.093,0,1.639,0H84.286c6.31,0,12.621-.033,18.931,0A4.692,4.692,0,0,1,108.084,57c.009,2.439,0,4.879,0,7.319V89.056c0,2.209.019,4.42,0,6.63-.025,2.988-2.3,4.717-5.118,4.717H60.805C57.717,100.4,57.712,105.2,60.805,105.2Z"/><path class="b" d="M70.4,59.073c.939-.669,2.549.756,1.461-.163-.223-.188-.465-.373-.695-.544a7.253,7.253,0,0,0-1.138-.712,7.015,7.015,0,0,0-3.523-.777A5.7,5.7,0,0,0,61.763,60a6.8,6.8,0,0,0-.233,5.514,10.753,10.753,0,0,0,4.145,4.707c1.35.976,2.889,2.3,4.516,2.754,2.015.568,3.912-.918,5.468-2.015a15.785,15.785,0,0,0,4.494-4.045,7.243,7.243,0,0,0,.967-5.567A5.819,5.819,0,0,0,76.763,57a7.813,7.813,0,0,0-6.848,2.451,2.422,2.422,0,0,0,0,3.394,2.447,2.447,0,0,0,3.394,0,4.131,4.131,0,0,1,1.336-.985c.372-.18-.246.069.155-.057.126-.04.253-.078.382-.109.561-.136.239-.03.15-.026.006,0,.662.035.455.01-.289-.036.369.131.056.019-.236-.084.074.044.1.061.383.211.11.072.026-.006.1.1.2.192.3.295-.309-.333.123.245.191.379-.2-.4.039.215.074.4-.082-.446-.019.383-.025.5.021-.415-.058.217-.1.369-.017.055-.186.5-.08.254.1-.22-.07.126-.076.136-.079.136-.162.27-.241.407l-.133.2q.162-.2,0-.011a14.009,14.009,0,0,1-2.833,2.272c-.479.335-.966.659-1.467.961-.1.058-.766.472-.781.451,0,0,.664-.007.672-.016l.105.015c-.116-.063-.231-.128-.346-.195a35.985,35.985,0,0,1-3.128-2.09,8.249,8.249,0,0,1-1.271-1.041c-.071-.071-.541-.631-.334-.346-.092-.127-.178-.264-.258-.4-.028-.047-.3-.578-.192-.341.095.217-.043-.13-.047-.144-.044-.148-.083-.293-.122-.442-.118-.457-.022-.15-.015-.037-.01-.153-.009-.3-.012-.456,0-.023.033-.4,0-.138s.038-.146.056-.208.153-.478.047-.2.151-.261.155-.268c.057-.107.273-.307-.006-.015.1-.1.192-.2.3-.295-.306.282-.078.043.026.006.421-.146-.151.028.128-.052.361-.1-.333,0,.09-.033.053-.005.595,0,.288-.032a3.426,3.426,0,0,1,.516.121c.052.013.386.134.165.04.893.379,1.092.874,1.938,1.418a2.976,2.976,0,0,0,3.278,0,2.453,2.453,0,0,0,.861-3.283A2.428,2.428,0,0,0,70.4,59.073Z"/><path class="b" d="M71.612,61.145a.61.61,0,0,1-.856,0,7.564,7.564,0,0,0-1.706-1.3,4.477,4.477,0,0,0-2.807-.531,3.448,3.448,0,0,0-2.723,2.875,5.159,5.159,0,0,0,1.7,4.634,17.784,17.784,0,0,0,1.887,1.486,28.6,28.6,0,0,0,3.5,2.262,1.224,1.224,0,0,0,1.155,0,28.694,28.694,0,0,0,3.5-2.262,17.784,17.784,0,0,0,1.887-1.486,5.159,5.159,0,0,0,1.7-4.634,3.448,3.448,0,0,0-2.723-2.875,4.476,4.476,0,0,0-2.807.531A7.542,7.542,0,0,0,71.612,61.145Z"/><path class="b" d="M86.225,76.66H98.69a2.4,2.4,0,0,0,0-4.8H86.225a2.4,2.4,0,0,0,0,4.8Z"/><path class="b" d="M86.225,85.036H98.69a2.4,2.4,0,1,0,0-4.8H86.225a2.4,2.4,0,1,0,0,4.8Z"/><path class="b" d="M86.225,93.411H98.69a2.4,2.4,0,1,0,0-4.8H86.225a2.4,2.4,0,1,0,0,4.8Z"/><path class="a" d="M82.57,114.685c-5.509,0-8.553,3.727-8.553,7.2,0,3.883,3.157,7.518,8.554,7.518,5.823,0,8.572-3.436,8.572-7.294C91.143,118.612,87.943,114.685,82.57,114.685Z"/><path class="b" d="M82.57,112.285c-4.545.052-8.848,2.349-10.462,6.757-1.439,3.928.351,8.257,3.584,10.667,3.614,2.694,9.262,2.772,13.142.6a9.392,9.392,0,0,0,4.525-9.916c-.912-5.044-5.972-8.048-10.789-8.108a2.4,2.4,0,0,0,0,4.8,5.972,5.972,0,0,1,2.134.3c.227.066.45.143.672.224-.357-.131-.005-.006.061.027.4.2.772.428,1.154.658.569.344-.292-.3.2.142.1.094.211.184.313.28a8.861,8.861,0,0,1,.7.749c-.324-.383.218.337.309.493s.182.343.276.513c.287.52-.116-.431.055.129.091.3.191.589.255.895.032.151.046.706.023.08,0,.12.018.238.022.358.01.308-.014.612-.032.919-.034.607.133-.5-.018.087-.045.176-.075.355-.123.531s-.4.988-.123.446c-.138.27-.265.54-.426.8-.1.154-.2.305-.31.45.059-.078.324-.348.026-.058a11.207,11.207,0,0,1-.822.779c.427-.34-.382.219-.5.286-.151.084-.306.16-.461.237-.358.177.531-.166-.119.049-.361.12-.717.239-1.088.328-.2.046-.392.084-.589.121-.168.026-.161.029.02.007-.171.021-.343.038-.515.051A13.173,13.173,0,0,1,82.3,127q-.332-.007-.663-.035c-.092-.007-.632-.087-.251-.024a9.554,9.554,0,0,1-1.182-.274c-.187-.057-.369-.12-.552-.187-.16-.061-.144-.053.047.027-.135-.061-.269-.126-.4-.194a10.723,10.723,0,0,1-.926-.558c-.381-.248-.093-.073-.016-.008-.158-.134-.313-.27-.461-.415-.118-.116-.722-.852-.419-.431-.233-.325-.417-.67-.62-1.013-.052-.088-.191-.423,0,.036-.074-.181-.139-.366-.2-.553-.1-.313-.152-.631-.226-.95.111.481.018.191.013.054-.007-.2-.025-.392-.024-.59,0-.118,0-.236.01-.353s.018-.237.032-.355q-.072.513,0,.107a10,10,0,0,0,.277-.963c.056-.327-.259.471.013-.025.091-.166.172-.336.268-.5s.207-.322.312-.483c.323-.494-.314.295.109-.128.288-.289.557-.578.87-.841-.406.341.13-.083.189-.122q.27-.177.555-.333c.162-.089.327-.171.494-.249q.228-.105-.052.018c.145-.056.291-.108.438-.157a6.944,6.944,0,0,1,2.638-.414,2.4,2.4,0,0,0,0-4.8Z"/><path class="b" d="M88.325,1.754c-.469,3.014-.807,6.055-1.157,9.085a2.389,2.389,0,0,0,.7,1.7,2.4,2.4,0,0,0,3.394,0,2.784,2.784,0,0,0,.7-1.7q.412-3.562.883-7.121l-.086.638c.06-.442.12-.885.188-1.326a2.616,2.616,0,0,0-.242-1.849A2.4,2.4,0,0,0,89.428.32a2.32,2.32,0,0,0-1.1,1.434Z"/><path class="b" d="M72.545,3.041c.246,1.485.435,2.979.636,4.47L73.1,6.873q.267,1.983.519,3.966a2.636,2.636,0,0,0,.7,1.7,2.4,2.4,0,0,0,3.394,0,2.3,2.3,0,0,0,.7-1.7c-.38-3.026-.742-6.064-1.241-9.074A2.4,2.4,0,0,0,76.07.331a2.4,2.4,0,0,0-3.525,2.71Z"/><path class="b" d="M104.733,3.472c-1.331,2.732-2.754,5.418-4.07,8.156a2.57,2.57,0,0,0-.242,1.849,2.4,2.4,0,0,0,4.387.574c1.315-2.739,2.739-5.424,4.069-8.156a2.565,2.565,0,0,0,.242-1.849,2.4,2.4,0,0,0-4.386-.574Z"/><path class="b" d="M56.663,5.9c1.33,2.732,2.754,5.417,4.07,8.156a2.412,2.412,0,0,0,3.283.861,2.464,2.464,0,0,0,.861-3.284C63.561,8.89,62.138,6.2,60.808,3.472a2.415,2.415,0,0,0-3.284-.861A2.463,2.463,0,0,0,56.663,5.9Z"/></svg>