<svg class="svg-icon" style="width: 1em; height: 1em;vertical-align: middle;fill: currentColor;overflow: hidden;" viewBox="0 0 1024 1024" version="1.1" xmlns="http://www.w3.org/2000/svg"><path d="M394 588c-13.8 0-25-11.2-25-25V250.1c0-66.2 51.6-120.1 115-120.1s115 53.9 115 120.1V553c0 13.8-11.2 25-25 25s-25-11.2-25-25V250.1c0-38.7-29.2-70.1-65-70.1s-65 31.4-65 70.1V563c0 13.8-11.2 25-25 25zM629.5 241.4h75.9v46.3h-75.9zM629.5 311.4h75.9v46.3h-75.9zM629.5 380.4h75.9v46.3h-75.9z"  /><path d="M484 895.1c-106.1 0-192.4-86.3-192.4-192.4 0-64 31.7-123.7 84.8-159.5 11.4-7.7 27-4.7 34.7 6.7 7.7 11.4 4.7 27-6.7 34.7-39.3 26.6-62.8 70.7-62.8 118.1 0 78.5 63.9 142.4 142.4 142.4s142.4-63.9 142.4-142.4c0-47.5-23.6-91.8-63.1-118.3-11.5-7.7-14.5-23.2-6.8-34.7 7.7-11.5 23.2-14.5 34.7-6.8 53.4 35.9 85.2 95.6 85.2 159.8 0 106-86.3 192.4-192.4 192.4z"  /><path d="M484 704.4m-108 0a108 108 0 1 0 216 0 108 108 0 1 0-216 0Z"  /><path d="M527.2 644.7V496.3c0-25.7-18.9-45.6-42.2-45.6-23.3 0-42.2 19.9-42.2 45.6v153.4"  /></svg>